<svg version="1.1" id="Layer_1" xmlns="http://www.w3.org/2000/svg" xmlns:xlink="http://www.w3.org/1999/xlink" x="0px" y="0px"
	 width="100%" viewBox="0 0 752 1024" enable-background="new 0 0 752 1024" xml:space="preserve">
<path fill="#000000" opacity="1.000000" stroke="none" 
	d="
M565.606873,699.008789 
	C544.997437,698.788269 524.838135,698.430908 504.679626,698.469360 
	C500.010742,698.478271 497.672363,697.014038 495.722809,692.674683 
	C472.819275,641.696228 441.565369,596.394470 402.414124,556.530090 
	C400.806274,554.892944 399.096252,553.356079 397.479095,551.815613 
	C395.032532,553.057861 394.183990,555.129517 393.007538,556.882874 
	C364.481384,599.396240 341.376068,644.723083 322.964691,692.453430 
	C321.499634,696.251526 319.541138,697.515564 315.616364,697.361389 
	C307.961090,697.060669 300.287170,697.137146 292.622620,697.215576 
	C289.283478,697.249695 287.873901,695.927185 287.681488,692.534790 
	C286.069763,664.116272 284.565247,635.688843 282.594177,607.294189 
	C280.623749,578.910156 278.144287,550.561523 275.905884,522.195984 
	C275.120453,512.242615 274.360260,502.287109 273.641632,492.328766 
	C273.167175,485.753235 272.811890,485.394562 266.278595,485.281342 
	C250.665970,485.010742 235.467087,482.419922 220.858353,476.826141 
	C217.611160,475.582733 214.496231,473.915558 211.482376,472.164673 
	C208.819214,470.617523 206.538193,468.522369 207.209946,464.956879 
	C207.830597,461.662598 210.476974,460.416412 213.328140,459.831787 
	C218.701935,458.729858 224.092377,457.540802 229.536835,456.986694 
	C240.965500,455.823639 252.417801,454.835693 263.917694,456.501373 
	C269.341583,457.286987 270.146088,456.610565 269.649109,450.997375 
	C267.962036,431.941772 266.049164,412.906158 264.227386,393.862457 
	C263.704498,388.396820 263.257812,382.923035 262.660065,377.465729 
	C262.336365,374.510651 263.070343,372.967407 266.412994,372.417419 
	C283.554230,369.597198 300.732697,368.083679 318.129974,369.190582 
	C322.959747,369.497864 324.518188,371.053680 324.460815,376.081482 
	C324.166260,401.902771 324.520996,427.731415 323.353668,453.542236 
	C323.272705,455.332062 322.935638,457.205933 323.814240,458.906647 
	C325.414459,460.149139 326.712189,458.976776 328.000671,458.402832 
	C357.459381,445.280548 381.747498,425.249573 403.286652,401.651886 
	C408.125000,396.351135 411.923706,390.190765 414.211548,383.288208 
	C416.947235,375.034637 415.455109,370.687317 408.258392,365.773590 
	C400.276550,360.323792 391.180786,357.615692 381.917419,355.399139 
	C350.251648,347.822113 318.094543,345.454010 285.696411,347.515686 
	C255.640900,349.428284 226.475311,356.110535 198.106445,366.236603 
	C195.183563,367.279877 192.359314,368.788025 188.374496,368.801483 
	C190.879517,345.501862 181.912857,327.811951 161.028641,315.457306 
	C167.752991,312.662689 173.631516,312.614014 179.271545,312.034271 
	C202.304260,309.666931 225.401657,308.209991 248.580200,308.986572 
	C293.413696,310.488708 337.305878,317.500153 379.909882,331.793610 
	C396.713654,337.431213 412.896790,344.475433 427.280334,355.041626 
	C439.008331,363.657104 448.770538,373.950012 453.841125,387.986237 
	C454.104919,388.716400 454.649292,389.345184 455.168396,390.193298 
	C458.785034,388.353577 460.787354,385.192505 463.259094,382.595154 
	C484.086792,360.709778 506.492340,340.561707 530.002197,321.612762 
	C532.922607,319.258942 535.730774,318.465393 539.623840,319.374847 
	C568.292480,326.072052 597.028198,332.481628 625.724731,339.060638 
	C627.402344,339.445251 629.481201,339.298157 630.595032,341.251099 
	C630.007507,343.263519 628.095154,343.792236 626.578857,344.643799 
	C588.565430,365.991394 552.716675,390.510010 519.073242,418.225800 
	C479.294464,450.995941 443.776978,487.868011 412.759155,529.063538 
	C410.475952,532.095825 410.946167,533.711731 413.746368,535.939148 
	C456.767700,570.159973 496.292145,608.044067 532.309387,649.576233 
	C544.647644,663.803650 556.564453,678.378662 567.949341,693.383179 
	C568.937866,694.685974 569.760925,696.114197 570.581055,697.362671 
	C569.450562,699.726562 567.573853,698.798889 565.606873,699.008789 
M514.877869,398.352386 
	C540.594360,378.355927 567.033020,359.375061 596.050110,341.700745 
	C581.808533,338.269745 569.018555,335.354828 556.333191,332.039764 
	C552.043762,330.918854 548.774109,331.521118 545.267395,334.265442 
	C509.722290,362.082581 477.148224,393.039825 447.811584,427.303101 
	C408.792603,472.874817 376.817841,523.051819 351.437683,577.418884 
	C340.959656,599.863892 331.729919,622.812744 323.822906,646.342651 
	C368.164337,549.052002 430.248474,465.460480 514.877869,398.352386 
M347.993408,548.568176 
	C351.899872,540.839478 355.600433,532.996643 359.797302,525.429016 
	C361.981537,521.490479 361.765472,519.013733 357.928741,516.293274 
	C348.556152,509.647461 339.468384,502.601196 330.211029,495.790802 
	C327.882202,494.077484 325.346466,492.645416 322.083038,490.557800 
	C320.011139,539.775635 316.717651,587.839722 312.792389,635.883179 
	C322.818115,606.316345 334.014221,577.286316 347.993408,548.568176 
M289.238251,457.557129 
	C289.887878,473.003357 290.095551,470.292603 303.209747,467.220673 
	C305.685120,466.640869 306.659149,465.187775 306.687744,462.587799 
	C306.983612,435.658142 307.332489,408.728821 307.785400,381.801392 
	C307.845184,378.248596 306.442627,377.198730 303.067902,377.244720 
	C298.071747,377.312805 293.119995,377.713470 288.154083,378.173920 
	C282.253387,378.721069 281.891022,379.222504 282.622009,385.259735 
	C283.339600,391.186523 283.757324,397.149719 284.299805,403.097565 
	C285.927643,420.945374 287.552155,438.793488 289.238251,457.557129 
M384.568115,456.198456 
	C367.138794,463.934326 349.327332,470.673370 329.926697,476.447815 
	C344.261200,485.934601 357.601471,494.763397 371.552338,503.996277 
	C383.580475,483.473053 396.457703,464.163544 409.203278,444.687744 
	C401.222382,448.421692 393.241516,452.155670 384.568115,456.198456 
M304.733582,510.477112 
	C305.037048,504.491425 305.415253,498.508423 305.627380,492.519501 
	C305.994171,482.166016 305.963684,482.294739 295.921600,483.279114 
	C292.219299,483.641998 291.189484,485.151886 291.450989,488.750458 
	C292.813416,507.498566 294.348236,526.246033 295.120667,545.022522 
	C296.434937,576.969727 297.753784,608.927307 297.213348,640.919617 
	C297.198486,641.799561 297.283844,642.681152 297.322479,643.562012 
	C297.615387,629.721252 299.130188,615.975891 300.024139,602.200684 
	C301.985809,571.972778 303.448761,541.724060 304.733582,510.477112 
M252.727600,472.673889 
	C258.795502,472.527374 264.926025,473.127319 270.896881,471.255463 
	C259.659119,468.566956 248.425156,468.596161 237.087128,470.979218 
	C241.986069,471.540466 246.885025,472.101685 252.727600,472.673889 
z"/>
</svg>